<?xml version="1.0" encoding="utf-8"?>
<!-- Generator: Adobe Illustrator 24.0.0, SVG Export Plug-In . SVG Version: 6.00 Build 0)  -->
<svg version="1.1" id="Layer_1" xmlns="http://www.w3.org/2000/svg" xmlns:xlink="http://www.w3.org/1999/xlink" x="0px" y="0px"
	 viewBox="0 0 216 216" style="enable-background:new 0 0 216 216;" xml:space="preserve">
<style type="text/css">
	.st0{fill:#000000;stroke:#000000;stroke-miterlimit:10;}
	.st1{fill:#FFFFFF;stroke:#000000;}
</style>
<path class="st0" d="M104.3,55.67c5.1-1.56,10.52-2.4,16.13-2.4c25.71,0,47.31,17.64,53.34,41.48l0.14,0l0,0c0,0-48.36,0-48.36,0
	c-2.85-15.09-10.37-28.52-21-38.74L104.3,55.67z"/>
<path class="st0" d="M104.3,160.89c5.1,1.56,10.52,2.4,16.13,2.4c25.71,0,47.31-17.64,53.34-41.48l0.14,0l0,0c0,0-48.36,0-48.36,0
	c-2.85,15.09-10.37,28.52-21,38.74L104.3,160.89z"/>
<path class="st1" d="M74.5,180.78c-9.36,0-16.74-2.08-22.13-6.24c-5.39-4.16-8.09-10.06-8.09-17.7c0-2.65,0-5.53,0-8.64
	s0-6.48,0-10.12c0-8.5-1.83-15.17-5.5-20.01c-3.67-4.84-8.64-8.06-14.93-9.66v-0.28c5.98-1.42,10.87-4.53,14.69-9.33
	s5.73-11.58,5.73-20.33c0-5.18,0-8.75,0-10.72c0-1.97,0-4.68,0-8.13c0-7.7,2.7-13.6,8.09-17.7s12.77-6.15,22.13-6.15h-0.66h46.73
	c35.42,0,64.9,25.4,71.24,58.97c0,0-17.9,0-17.9,0c-6.03-23.84-27.62-41.48-53.34-41.48c-5.61,0-11.03,0.84-16.13,2.4
	c-22.51,6.89-38.88,27.84-38.88,52.61c0,30.38,24.63,55.01,55.01,55.01c25.71,0,47.31-17.64,53.34-41.48c0,0,17.9,0,17.9,0
	c-6.34,33.58-35.82,58.97-71.24,58.97H73.84"/>
</svg>
